<?xml version="1.0" encoding="UTF-8"?>
<svg id="Camada_2" data-name="Camada 2" xmlns="http://www.w3.org/2000/svg" viewBox="0 0 562.01 562.04">
  <g id="Camada_1-2" data-name="Camada 1">
    <path fill="#84858c" d="m124.65,325.92c.54-1.02,1.15-2.13,1.73-3.25,30.96-59.92,61.95-119.82,92.86-179.77,6.16-11.95,14.67-21.66,26.21-28.62,32.76-19.75,77.12-9.34,96.16,26.55,9.47,17.85,18.6,35.88,27.87,53.83,22.14,42.86,44.28,85.72,66.42,128.58.29.57.62,1.12.88,1.7.38.86,1.01,1.22,1.94,1.17.82-.04,1.64,0,2.46,0,37.8,0,75.6,0,113.39.09h3.5c-16.09,117.74-123.41,233.4-272.81,235.81C125.11,564.59-6.43,431.79.24,269.3,6.62,114.06,139.02-8.6,296.96.47c157.57,9.05,271.04,143.97,264.8,289.77-1.9.58-60.3.78-64.47.2,1.49-61.31-18.21-114.73-60.63-159.28-27.36-28.73-60.44-48.3-98.73-58.76-38.19-10.43-76.54-10.55-114.63.22C106.34,105.73,46.2,222.49,69.67,325.92h54.97Zm39.23,64.8h-68.59c34.03,60.13,111.05,116.12,210.13,105.14,43.84-4.86,82.51-22.04,116.08-50.62,17.31-14.73,43.1-45.97,45.09-54.25h-68.61c-.61-1.27-1.16-2.31-1.7-3.36-36.87-71.4-73.75-142.8-110.62-214.2-.33-.65-.63-1.32-1.01-1.93-1.76-2.82-5.4-2.82-7.16,0-.48.77-.86,1.6-1.28,2.41-36.86,71.31-73.71,142.61-110.57,213.91-.5.97-1.03,1.91-1.76,2.89Z"/>
    <path fill="#84858c" d="m281.11,372.69c-25.6.08-46.5-20.66-46.59-46.24-.09-25.95,20.78-46.95,46.67-46.87s46.41,21.16,46.33,46.65c-.09,25.69-20.72,46.37-46.41,46.46Z"/>
  </g>
</svg>