<?xml version="1.0" encoding="UTF-8"?>
<svg id="Camada_2" data-name="Camada 2" xmlns="http://www.w3.org/2000/svg" viewBox="0 0 664.65 663.8">
  <g id="lobby_Imagem" data-name="lobby Imagem">
    <g>
      <path fill="#e48d4b" d="m576.82,127.64c14.12,0,27.92-.29,41.71.07,19.62.51,34.02,9.71,42.16,27.63,2.21,4.87,3.56,10.55,3.66,15.89.41,22.49.32,44.99.16,67.48-.09,12.17-9.12,21.89-21.16,23.36-2.47.3-4.98.39-7.48.39-202.45.02-404.91.02-607.36.01-15.17,0-24.74-6.36-27.76-18.56-.59-2.39-.69-4.94-.7-7.42-.05-20.66-.09-41.32-.01-61.99.09-27.04,20.06-46.81,47.25-46.86,13.31-.03,26.63,0,40.55,0-.58-1.68-.89-2.89-1.4-4C61.44,68.85,98.81,5.4,158.92.39c25.9-2.16,48.25,5.79,67.43,22.99,18.11,16.24,36.07,32.65,54.1,48.97,1.22,1.1,2.5,2.12,4.06,3.44,13.54-12.66,29.33-19.68,47.85-19.65,18.35.04,34.05,6.87,47.66,19.7,3.98-3.56,7.82-6.95,11.61-10.38,15.81-14.32,31.49-28.78,47.43-42.95,50.69-45.07,130.61-19.03,144.85,47.29,3.86,18,2.55,35.79-5.41,52.74-.5,1.06-.98,2.12-1.43,3.19-.12.29-.09.63-.26,1.9Zm-310.81-.39c-1.61-2.45-2.38-4.35-3.75-5.6-23.15-21.08-46.28-42.18-69.61-63.06-14.67-13.12-36.23-13.18-51.24-.58-12.72,10.68-17.39,27.84-11.83,43.44,5.57,15.63,19.96,26.06,36.61,26.13,31.31.12,62.62.05,93.93.04,1.47,0,2.93-.18,5.89-.37Zm185.69.39v-.03c15.15,0,30.31.14,45.46-.04,17.95-.2,33.95-12.22,38.57-28.66,4.68-16.65-1.99-34.43-16.38-43.66-15.12-9.7-33.88-8.66-47.69,3.57-23.43,20.75-46.5,41.91-69.64,62.99-1.17,1.07-1.52,3.03-2.26,4.57,1.49.42,2.98,1.19,4.48,1.2,15.82.09,31.64.05,47.46.05Z"/>
      <path fill="#e48d4b" d="m372.27,481.2c0-58.15,0-116.3,0-174.45q0-7.15,7-7.16c78.48,0,156.96,0,235.43,0q6.88,0,6.89,6.67c0,102.8-.35,205.61.25,308.41.15,25.67-18.8,49.34-49.44,49.13-64.31-.43-128.63-.13-192.95-.13q-7.19,0-7.19-7.02c0-58.48,0-116.97,0-175.45Z"/>
      <path fill="#e48d4b" d="m292.32,481.62c0,58.31,0,116.63,0,174.94q0,7.09-7.11,7.11c-64.81,0-129.63.04-194.44-.02-24.12-.02-42.7-15.05-47.1-37.96-.59-3.08-.63-6.29-.63-9.45-.03-103.47.01-206.93-.14-310.4,0-5.12,1.41-6.38,6.42-6.37,78.81.15,157.62.11,236.42.11,6.55,0,6.57.02,6.57,6.59,0,58.48,0,116.96,0,175.44Z"/>
    </g>
  </g>
</svg>