<?xml version="1.0" encoding="UTF-8"?>
<svg id="Camada_2" data-name="Camada 2" xmlns="http://www.w3.org/2000/svg" viewBox="0 0 527.18 335.99">
  <g id="lobby_Imagem" data-name="lobby Imagem">
    <g>
      <path fill="#475f91" d="m37.17,335.99c.15-.34.3-.68.42-.94-.09-.63-.17-1.15-.24-1.67.47-.5.89-.94,1.38-1.45.3-.01.66-.03.96-.04.71-.66,1.38-1.28,2.04-1.9.36-.34.73-.68,1.06-1.05.68-.76,1.42-1.39,2.42-1.49,1.32-1.24,2.48-2.56,4.18-3.19.22-.08.43-.26.58-.45.8-.99,1.85-1.63,2.96-2.23.57-.31,1.05-.8,1.53-1.25.73-.69,1.46-1.36,2.57-1.36.86-1.26,1.99-2.12,3.35-2.73.55-.25,1.01-.69,1.71-1.18.13-.02.49-.06.81-.1.8-.73,1.59-1.4,2.3-2.15.59-.63,1.17-1.19,1.99-1.05,1.95-1.47,3.12-3.68,5.66-4.4.17-.18.44-.48.74-.81.34.06.66.12.93.17,1.12-1.2,2.21-2.38,3.33-3.58.36.2.64.34.82.45.7-.8,1.34-1.54,1.95-2.23.49-.04.86-.07,1.23-.1-.05-.05-.1-.1-.14-.15,1.08-.97,2.16-1.94,3.29-2.94.36-.04.77-.09,1.18-.13.07.07.15.14.22.2.56-.67,1.11-1.35,1.69-2,.56-.61,1.11-1.2,2.05-1.28.35-.03.69-.43,1-.7.99-.88,1.94-1.82,2.96-2.66.49-.41,1.11-.67,1.75-.88.21-.25.42-.51.67-.81.34-.03.7-.06.9-.08,1.2-1.09,2.31-2.09,3.53-3.19.21.01.61.04.92.06.65-.75,1.23-1.43,1.77-2.05.55-.04.96-.08,1.37-.11-.08-.09-.16-.18-.24-.27,1.07-.98,2.13-1.95,3.11-2.84h1.35c.94-.9,1.87-1.78,2.78-2.66.8-.78,1.56-1.58,2.68-1.97.55-.19.96-.76,1.46-1.13.7-.51,1.41-1,2.12-1.49.47-.32.95-.63,1.57-1.04,1.8-.17,2.5-2.01,3.99-3.19.27-.02.76-.06,1.18-.1,1.94-1.46,3.13-3.76,5.65-4.55.24-.22.54-.49.87-.79.33.1.63.19.84.25,1.17-1.22,2.28-2.39,3.42-3.58.33.14.62.26.82.35.75-.8,1.44-1.54,2.12-2.26.4.05.68.09.95.13,1.23-1.32,2.29-2.83,4.41-3.45.49-.45,1.25-1.04,1.87-1.76.64-.75,1.38-1.16,2.23-1.23,1.53-1.36,2.97-2.67,4.46-3.93.26-.22.7-.24,1.14-.39.18-.22.41-.51.67-.85.33.04.69.09,1.02.13,1.55-1.87,3.03-3.76,5.57-4.73.94-1.1,2.13-2.24,3.73-2.85.19-.07.41-.17.52-.32,1.26-1.64,3.39-2.09,4.8-3.51,2.21-.47,3.23-2.49,4.83-3.75.55-.43,1.04-.79,1.76-.77.24-.3.47-.59.72-.91.36-.03.73-.06.95-.08,1.17-1.05,2.25-2.02,3.32-2.99l-.12-.16c.45-.02.9-.05,1.23-.06,1.01-.95,1.89-1.88,2.88-2.68,1.06-.85,2.21-1.61,3.36-2.34.31-.2.77-.15,1.29-.24.97-.95,2.07-2.02,3.21-3.13.32-.04.69-.08,1.06-.12.09-.08.19-.16.28-.24,1.11-1.06,2.17-2.18,3.36-3.15.72-.59,1.63-.95,2.41-1.53.37-.04.74-.07,1.02-.1,1.07-1.02,2.08-1.98,3.17-3.02.95.84,1.86,1.57,2.67,2.38,5.03,5.01,10.05,10.05,15.07,15.07.09.09.19.15.21.17.59.05,1.1.09,1.72.15-.11.85-.19,1.53-.28,2.24.57-.09,1.19-.19,1.76-.28,4.85,4.94,9.61,9.79,14.45,14.72.19-.03.51-.09.96-.17,4.05,3.74,7.94,7.69,11.8,11.85.21-.03.53-.08,1.04-.16.61.58,1.29,1.24,1.98,1.89-.04.05-.09.11-.13.16h1.55c.19.39.38.79.6,1.24,1.14.51,2.33-.13,3.53,0,.28.39.54.76.82,1.15h2.68c.13-.33.26-.66.44-1.14,1.2.06,2.46.12,3.76.19.15-.49.27-.88.44-1.41.47-.03.99-.07,1.51-.1.97-.95,1.95-1.9,2.99-2.9.34-.03.75-.08,1.08-.11,1.93-1.97,3.81-3.9,5.71-5.81,3.56-3.55,7.12-7.1,10.71-10.63.97-.96,1.97-1.91,3.26-2.47.33-.14.6-.44.86-.7,2.83-2.81,5.64-5.63,8.47-8.44.11-.11.27-.19.43-.3.36.04.72.08.99.11.57-.63,1.07-1.24,1.62-1.79,4.51-4.54,9.03-9.07,13.55-13.6.12-.12.25-.22.43-.38h1.92c3.22,1.49,5.43,3.84,7.49,6.39.36-.07.68-.14,1.14-.23.6.66,1.24,1.36,1.87,2.07.04-.07.08-.13.12-.2.67.29,1.35.58,2.02.87,1.1.27,1.87,1.08,2.65,1.81.91.85,1.72,1.8,2.43,2.56,2.39.31,3.35,2.05,4.63,3.52.31-.04.67-.09,1.13-.15,1.01,1.09,2.04,2.21,3.13,3.41.19-.06.45-.15.82-.27.67.71,1.38,1.46,2.15,2.28.24-.02.56-.05,1-.08.65.63,1.39,1.3,2.07,2.02.53.55,1.1.94,1.83,1.22,2.08.79,3.92,1.99,5.45,3.61.46.48.92.96,1.37,1.42.43.06.79.11,1.3.18.95,1,1.97,2.08,3.07,3.24.15-.09.37-.22.76-.45,1.03,1.18,2.09,2.39,3.2,3.66.16-.07.41-.17.82-.35.71.71,1.45,1.46,2.19,2.21.44.05.85.1,1.22.14,1.08,1.03,2.12,2.03,3.19,3.05.36.06.73.12,1.32.21.47.56,1.05,1.26,1.5,1.79.65.1,1.02.16,1.28.2,2.64,1.95,5.58,3.39,7.28,6.36.31-.13.6-.25,1.02-.43,1.08,1.12,2.18,2.28,3.38,3.53.14-.04.45-.12.92-.24.59.67,1.22,1.37,1.88,2.11.38.05.78.11,1.28.18,1.74,1.27,3.53,2.59,5.33,3.9-.03.05-.06.1-.09.15.36.07.73.14,1.04.21,1.43,1.34,2.81,2.65,4.36,4.11h.88c1.05,1.03,2.09,2.04,3.19,3.11.58-.22,1.11,0,1.59.47.9.86,1.81,1.7,2.75,2.58,1.53-.01,2.28,1.14,3.12,2.23h1.4c.88.98,1.85,2.05,2.9,3.21.08,0,.28-.01.47-.03.16-.01.32-.03.4-.04,2.08,1.7,4.46,2.91,5.87,4.98,2.05.51,3.55,1.66,5,2.79.98.77,1.96,1.51,3,2.18,1.03.67,1.95,1.53,2.88,2.35.46.41.85.91,1.25,1.34.43-.06.75-.1,1.14-.15,1.01,1.13,2.02,2.27,3.1,3.49.21-.12.47-.26.85-.48.27.41.53.81.84,1.29.99-.27,1.69.31,2.37,1.03,1.03,1.08,2.13,2.09,3.28,3.21.25.04.62.09,1.02.14.2.18.45.35.63.57,1.4,1.74,3.31,2.72,5.3,3.58.38.16.78.34,1.07.62,1.16,1.12,2.29,2.29,3.53,3.54.19-.03.55-.08.99-.14.98,1.04,1.97,2.09,3.06,3.25.06-.02.31-.11.55-.19,2.59,1.32,4.81,3.08,6.46,5.06,2.7,1.17,4.87,2.57,6.74,4.53.82-.04,1.46.35,1.95,1.04.17.23.38.44.61.62.94.72,1.44,1.57,1.02,2.8-.08.24.07.56.12.85H37.17Z"/>
      <path fill="#475f91" d="m527.18,321.53c-.74-.46-1.46-.94-2.21-1.37-1.57-.91-2.85-2.15-4.05-3.47-.68-.74-1.36-1.43-2.42-1.65-.41-.08-.85-.39-1.14-.72-1.23-1.4-2.69-2.41-4.43-3.08-2.28-.89-3.76-2.65-4.99-4.76-.28.11-.58.23-.98.38-.36-.33-.74-.69-1.17-1.08-.84.14-1.42-.43-1.99-.97-1.17-1.12-2.32-2.26-3.45-3.43-.6-.62-1.24-1.1-2.18-1.06-.64-.59-1.27-1.19-1.98-1.85-1.95-.23-2.8-2.07-4.29-3.04-1.3-.7-2.69-1.28-3.87-2.14-1.16-.85-2.1-1.98-3.16-3.02-1.98-.49-3.08-2.17-4.57-3.56h-1.14c-1.24-.53-2.34-1.33-3.33-2.3-.95-.93-1.95-1.81-2.78-2.89-.36-.06-.73-.13-1.04-.19-1.63-1.3-3.82-1.82-4.83-3.76-1.8-.57-3.2-1.59-4.3-3.09-.37-.5-.99-.88-1.57-1.16-2.03-.98-4.05-1.95-5.6-3.65-.55-.61-1.03-1.27-1.62-2.01-.21.07-.55.18-1.03.34-1-1.08-2.03-2.2-3.16-3.42-.17.03-.48.07-.84.13-1.07-.94-2.15-1.9-3.24-2.86.07-.08.15-.17.22-.25-.52-.05-1.05-.09-1.53-.14-.38-.45-.67-.86-1.04-1.19-.33-.29-.72-.62-1.12-.7-.74-.15-1.3-.52-1.8-1.04-.35-.36-.72-.69-1.06-1.06-.58-.61-1.27-.99-2.04-1.36-2.62-1.27-4.33-2.21-6.43-5.19-.21.09-.43.17-.71.29-1.3-.93-2.42-2.06-3.34-3.5-.15.11-.33.24-.61.44-1.37-.88-2.42-2.18-3.78-3.32-1.47.26-2.03-1.14-3.03-1.97-.4-.06-.84-.13-1.29-.2.04-.05.08-.09.12-.14-1.04-.89-2.09-1.78-3.13-2.67.05-.06.1-.13.16-.19-.4-.08-.8-.16-1.44-.29-.86-.93-1.84-2-2.77-3.01-1.76.05-2.96-.85-4.14-1.79-.26-.21-.54-.41-.73-.68-1.33-1.86-3.29-2.85-5.25-3.84-1.43-.72-2.7-1.63-3.55-3.06-.42-.08-.82-.16-1.22-.24-1.6-1.09-2.93-2.44-4-4.08-.48-.04-.93-.08-1.38-.12.02-.05.04-.09.06-.14-.61-.32-1.27-.57-1.82-.98-.96-.71-1.95-1.43-2.74-2.31-.71-.78-1.41-1.4-2.42-1.83-1.87-.8-3.62-1.86-5.07-3.34-.92-.94-1.87-1.87-2.92-2.91-.08.01-.4.07-.91.16-.63-.71-1.3-1.46-2.06-2.32-.09.05-.37.19-.79.42-1.06-1.14-2.15-2.31-3.28-3.53-.15.06-.38.14-.75.27-.41-.36-.88-.74-1.32-1.17-.42-.4-.82-.83-1.18-1.29-.53-.69-1.25-.92-2.26-.99-.43-.55-.95-1.21-1.34-1.7-2.3-.36-3.34-2.02-4.8-3.34-1.95-.04-2.72-1.95-4.27-3.08-2.14-.13-3.6-1.75-5.18-3.14-.38-.33-.49-1.01-.62-1.55-.1-.43-.02-.9-.02-1.21,2.08-2.08,4.05-4.05,6.09-6.09.22.07.53.17.83.27.06-.04.17-.06.19-.12.53-1.23,1.64-1.97,2.54-2.87,2.7-2.7,5.47-5.34,8.19-8.02,2.4-2.36,4.77-4.75,7.15-7.13.44-.44.89-.83,1.55-.97.41-.09.79-.43,1.11-.74,2.82-2.76,5.62-5.54,8.42-8.32.09-.09.21-.14.36-.24.32-.03.69-.07,1.1-.11,4.46-4.54,8.95-9.09,13.38-13.6.53-.04.94-.08,1.4-.11,5.15-5.21,10.31-10.43,15.52-15.69h1.01c.1-.07.18-.11.24-.16,1.22-1.24,2.43-2.5,3.66-3.73,3.64-3.64,7.29-7.27,10.93-10.91,1.12-1.12,2.18-2.29,3.35-3.35.5-.45,1.19-.69,1.88-.9,2.63-2.54,5.25-5.08,7.89-7.61,1.08-1.04,2.16-2.07,3.26-3.09.24-.22.52-.52.8-.55,1.04-.1,1.59-.85,2.21-1.5,2.23-2.34,4.43-4.73,6.69-7.04,1.54-1.57,3.17-3.05,4.79-4.54.32-.3.75-.61,1.16-.66.73-.1,1.2-.53,1.66-1,3.96-4.03,7.91-8.07,11.9-12.07,1.43-1.44,2.92-2.84,4.44-4.19.47-.42,1.13-.63,1.8-.8,2.96-2.97,5.92-5.95,8.88-8.92,1.53-1.53,3.07-3.04,4.58-4.59.6-.62,1.24-1.09,2.1-1.15,3.15-3.07,6.28-6.11,9.38-9.13.43-.05.8-.09.93-.1,4.68-4.59,9.22-9.04,13.92-13.65,1-.09,2.33.55,3.52-.42v-1.43c-.86-.23-1.16,1.06-2.05.5.04-.94,1.05-1.05,1.51-1.62.46-.57,1.1-1,1.66-1.49v300.82Zm-2.03-3.74c-.26.71-.19,1.11.58,1.19.31-.6.11-.93-.58-1.19Z"/>
      <path fill="#475f91" d="m110.78,82.42c-2.42-1.43-4.09-3.6-6.09-5.4-2.23-1.99-4.33-4.12-6.52-6.16-.38-.35-.9-.55-1.58-.95-.4-.65-.93-1.53-1.46-2.4-1.34-.38-2.26-1.28-3.19-2.17-2.72-2.62-5.48-5.2-8.22-7.81-1.11-1.06-2.11-2.24-3.29-3.21-3.47-2.85-6.57-6.09-9.89-9.1-1.01-.92-1.96-1.91-2.99-2.83-2.91-2.6-5.89-5.1-8.61-7.91-2.37-2.45-4.86-4.77-7.36-7.09-1.06-.98-2.3-1.77-3.4-2.7-.85-.72-1.64-1.53-2.44-2.3-3.46-3.35-6.92-6.7-10.38-10.05-.12-.12-.23-.26-.37-.33-2.29-1.16-3.74-3.26-5.58-4.92-1.51-1.36-3.03-2.71-4.49-4.12-.66-.64-.99-1.5-1.22-2.52.31-.14.58-.32.88-.39.32-.07.66-.03.99-.04,1.86,0,3.73,0,5.59,0C39.35.02,47.54,0,55.74,0c20.25,0,40.5,0,60.75,0,39.92,0,79.83,0,119.75,0,39.92,0,79.83,0,119.75,0,39.92,0,79.83,0,119.75,0,8.15,0,16.3.01,24.45.04.78,0,1.58.09,2.35.23.41.08.79.35,1.2.53-1.08,2.1-2.79,3.46-4.38,4.9-5.3,4.79-10.65,9.52-15.62,14.67-.92.95-2.01,1.73-3.02,2.59-.7.59-1.41,1.16-2.08,1.78-2.66,2.5-5.33,5.01-7.96,7.54-1.05,1.01-2.01,2.1-3.02,3.14-.4.42-.79.86-1.25,1.22-5.72,4.45-10.75,9.64-15.92,14.69-.97.95-2.13,1.71-3.13,2.64-3.75,3.53-7.45,7.11-11.2,10.64-1.05.99-2.2,1.88-3.31,2.82-.29.24-.59.46-.86.72-3.38,3.26-6.74,6.54-10.15,9.76-1.26,1.2-2.64,2.27-3.95,3.41-.47.41-.93.83-1.38,1.26-3.93,3.76-7.77,7.63-11.82,11.26-5.56,4.99-11.02,10.1-16.35,15.34-.91.89-2.02,1.59-2.95,2.46-3.77,3.56-7.5,7.17-11.27,10.73-.92.87-2.02,1.57-2.94,2.44-4.1,3.89-8.16,7.81-12.24,11.72-1.28,1.23-2.39,2.66-4.07,3.44-.15.07-.26.2-.38.32-3.78,3.62-7.56,7.23-11.34,10.86-1.38,1.32-2.62,2.78-4.28,3.8-.28.17-.49.44-.73.67-3.4,3.23-6.8,6.47-10.22,9.68-.42.39-.95.66-1.5,1.04-.14.35-.31.77-.5,1.24-1.3.29-2.18,1.27-3.1,2.15-1.8,1.72-3.55,3.5-5.34,5.24-1.34,1.3-2.7,2.58-4.05,3.88-.26.26-.59.54-.68.87-.36,1.45-1.45,2.31-2.52,3.14-2.15,1.65-4.12,3.48-5.95,5.48-.75.83-1.62,1.54-2.46,2.29-.18.16-.42.3-.65.35-1.08.21-1.85.9-2.59,1.64-.65.64-1.26,1.33-1.94,1.93-.77.69-1.59,1.32-2.4,1.97-.39.31-.81.59-1.17.93-3.29,3.17-6.56,6.36-9.87,9.51-1.23,1.17-2.55,2.24-3.84,3.36-.47.41-.99.77-1.43,1.2-4.05,3.94-8.09,7.89-12.13,11.84-.21.2-.41.42-.62.61-1.04.91-1.84.91-2.84-.02-1.42-1.34-2.8-2.71-4.23-4.04-1.94-1.81-3.84-3.68-6.04-5.19-.58-.39-1.07-.92-1.57-1.42-2.12-2.11-4.22-4.24-6.36-6.33-1.69-1.65-3.42-3.27-5.17-4.87-.41-.37-.98-.57-1.62-.93-.27-1.23-1.36-1.99-2.45-2.77-.6-.43-1.2-.9-1.73-1.42-1.99-1.95-3.94-3.94-5.93-5.88-1.52-1.48-3.07-2.92-4.65-4.33-.57-.51-1.26-.89-2.14-1.5-.23-.68-.82-1.43-1.79-1.87-.36-.16-.62-.54-.92-.83-4.11-3.94-8.2-7.89-12.32-11.81-.46-.44-1.09-.71-1.76-1.14-.1-.28-.26-.71-.46-1.24-1.57-.6-2.61-2-3.85-3.15-2.12-1.98-4.27-3.95-6.37-5.96-.84-.8-1.57-1.71-2.69-2.15-.14-.06-.3-.2-.34-.34-.31-1.08-1.14-1.57-2.17-1.85-.11-.43-.22-.82-.25-.94-1.01-.83-1.87-1.47-2.64-2.2-2.96-2.79-5.89-5.62-8.86-8.4-.57-.53-1.33-.85-1.9-1.37-.93-.83-1.76-1.75-2.66-2.61-3-2.87-6.01-5.73-9.02-8.6-.78-.75-1.56-1.5-2.32-2.26-.71-.71-1.4-1.41-2.34-1.83-.4-.18-.73-.55-1.05-.87-2.37-2.33-4.72-4.68-7.1-7-1.01-.98-2.06-1.94-3.13-2.86-3.37-2.89-6.64-5.88-9.76-9.03-1.78-1.8-3.7-3.46-5.57-5.17-1.77-1.61-3.61-3.16-5.35-4.8-1.72-1.62-3.35-3.35-5.06-4.99-1.41-1.35-2.9-2.61-4.33-3.94-.76-.71-1.45-1.49-2.18-2.22-.23-.23-.45-.52-.74-.64-1.32-.56-2.37-1.36-2.75-2.75Z"/>
      <path fill="#475f91" d="m.09,321.17c-.03-12.52-.06-25-.07-37.48-.01-12.54,0-25.09,0-37.63,0-12.5-.02-24.99,0-37.49.03-12.5.14-25,.14-37.5,0-12.48-.12-24.96-.14-37.45-.03-12.54,0-25.08,0-37.62,0-12.5,0-25,0-37.51,0-12.47,0-24.93,0-37.4.12-.04.24-.08.37-.12.35.25.74.47,1.05.76,2.88,2.69,5.75,5.4,8.63,8.1,5.1,4.77,10.13,9.61,15.33,14.26,3.9,3.49,7.68,7.11,11.48,10.71,3.98,3.77,8.16,7.33,12.07,11.17,4.15,4.08,8.57,7.86,12.83,11.81,1.92,1.78,3.76,3.64,5.68,5.42,3.22,3,6.5,5.94,9.71,8.95,3.58,3.35,7.11,6.75,10.68,10.11,3.69,3.47,7.4,6.92,11.13,10.36,4.58,4.23,9.18,8.42,13.76,12.65,1.16,1.07,2.21,2.25,3.37,3.32,4.3,3.98,8.73,7.81,12.9,11.92,4.15,4.09,8.65,7.77,12.84,11.8,1.08,1.04,2.11,2.12,3.21,3.14,2.8,2.6,5.63,5.16,8.43,7.76,1.98,1.84,3.91,3.73,5.89,5.56,3.78,3.49,7.59,6.96,11.39,10.44.58.53,1.14,1.1,1.71,1.64,2.75,2.59,5.5,5.19,8.25,7.77.27.25.6.44.73.54.05.99-.44,1.33-.91,1.67-6.57,4.74-13.14,9.47-19.71,14.21-6.7,4.84-13.38,9.7-20.07,14.56-7.33,5.32-14.66,10.63-21.98,15.95-6.08,4.42-12.17,8.83-18.25,13.25-5.17,3.76-10.32,7.56-15.49,11.32-6.59,4.78-13.19,9.54-19.78,14.32-5.91,4.3-11.8,8.63-17.72,12.92-5.18,3.76-10.38,7.48-15.55,11.24-4.37,3.17-8.7,6.4-13.07,9.57-4,2.91-8.02,5.78-12.02,8.68-1.75,1.27-3.48,2.55-5.24,3.81-.41.3-.78.8-1.57.49Z"/>
    </g>
  </g>
</svg>